<?xml version="1.0" encoding="utf-8"?>
<!-- Generator: Adobe Illustrator 28.0.0, SVG Export Plug-In . SVG Version: 6.00 Build 0)  -->
<svg version="1.1" id="图层_1" xmlns="http://www.w3.org/2000/svg" xmlns:xlink="http://www.w3.org/1999/xlink" x="0px" y="0px"
	 viewBox="0 0 128 128" style="enable-background:new 0 0 128 128;" xml:space="preserve">
<style type="text/css">
	.st0{fill:#363D52;stroke:#212532;stroke-width:4;}
	.st1{fill:#FFFFFF;}
	.st2{fill:#478CBF;}
	.st3{fill:#414042;}
	.st4{opacity:0.99;}
	.st5{fill:#FFF100;stroke:#231815;stroke-miterlimit:10;}
</style>
<path class="st0" d="M16,2h96c7.7,0,14,6.3,14,14v96c0,7.7-6.3,14-14,14H16c-7.7,0-14-6.3-14-14V16C2,8.3,8.3,2,16,2z"/>
<g transform="translate(12.322 12.322)scale(.101)">
	<path class="st1" d="M105,673v33c271.3,236,542.7,236,814,0v-33H105z"/>
	<path class="st2" d="M105,673l152,14c8,0.7,13,5.3,15,14l4,67l132,10l8-61c1.3-7.3,6.3-12.3,15-15h162c8.7,2.7,13.7,7.7,15,15l8,61
		l132-10l4-67c2-8.7,7-13.3,15-14l152-14V427c20-26,38.7-53,56-81c-23.3-39.3-51-75.3-83-108c-28.7,13.3-56,29-82,47
		c-26.7-24.7-56-46-88-64c4.7-34,7.3-68,8-102c-39.3-18.7-80.3-32.7-123-42c-17.3,28.7-32.7,58.3-46,89c-32.7-4.7-65.3-4.7-98,0
		c-13.3-30.7-28.7-60.3-46-89c-42.7,9.3-83.7,23.3-123,42c0.7,34,3.3,68,8,102c-32,18-61.3,39.3-88,64c-26-18-53.3-33.7-82-47
		c-32,32.7-59.7,68.7-83,108c17.3,28,36,55,56,81V673z M105,706v39c0,276,813,276,814,0v-39l-134,12l-5,69c-1.3,6.7-6,11-14,13
		l-162,11c-8,0-13.3-3.7-16-11l-10-65H446l-10,65c-2.7,7.3-8,11-16,11l-162-11c-8-2-12.7-6.3-14-13l-5-69L105,706z"/>
	<path class="st1" d="M483,600c0,34,58,34,58,0v-86c0-34-58-34-58,0V600z"/>
	<circle class="st1" cx="725" cy="526" r="90"/>
	<circle class="st1" cx="299" cy="526" r="90"/>
</g>
<g transform="translate(12.322 12.322)scale(.101)">
	<circle class="st3" cx="307" cy="532" r="60"/>
	<circle class="st3" cx="717" cy="532" r="60"/>
</g>
<g class="st4">
	<path class="st5" d="M10.9,84.7C7.4,80.5,5.7,75,5.7,68.1c0-6.9,1.8-12.4,5.3-16.4c3.4-4,8-6,13.6-6s10.2,2,13.6,6
		c3.5,4.1,5.3,9.5,5.3,16.4c0,6.9-1.8,12.4-5.3,16.6c-3.5,4.1-8,6.1-13.6,6.1C18.9,90.7,14.4,88.7,10.9,84.7z M33.2,80.2
		c2.2-3,3.2-7.1,3.2-12.2c0-5.1-1.1-9.1-3.2-12c-2.2-2.9-5.1-4.4-8.7-4.4c-3.6,0-6.5,1.5-8.6,4.4c-2.2,2.9-3.2,7-3.2,12
		c0,5.1,1.1,9.2,3.2,12.2c2.1,3,5,4.5,8.6,4.5C28.2,84.8,31.1,83.3,33.2,80.2z"/>
	<path class="st5" d="M66.4,77.6H51.3L47.6,90h-7L55,46.5h7.9L77.3,90H70L66.4,77.6z M64.7,72.2L63,66.4c-0.7-2.4-2.1-7.2-4.1-14.5
		h-0.2c-1.1,4.3-2.4,9.1-4,14.5l-1.8,5.8H64.7z"/>
	<path class="st5" d="M77.5,46.5h6.8V90h-6.8V46.5z"/>
	<path class="st5" d="M90.2,46.5h11.3c6.7,0,11.9,1.8,15.5,5.4c3.7,3.7,5.5,9.1,5.5,16.1c0,7-1.8,12.4-5.4,16.2
		c-3.6,3.8-8.6,5.7-15.2,5.7H90.2V46.5z M101,84.4c9.6,0,14.3-5.4,14.3-16.3c0-10.7-4.8-16-14.3-16h-4v32.3H101z"/>
</g>
</svg>
